<svg fill="black" height="64" viewBox="0 0 64 64" width="64" xmlns="http://www.w3.org/2000/svg"><path clip-rule="evenodd" d="M38.7948 40.8933C36.3912 42.8364 33.3315 44 30 44C22.268 44 16 37.732 16 30C16 22.268 22.268 16 30 16C37.732 16 44 22.268 44 30C44 33.3315 42.8364 36.3912 40.8933 38.7948C40.8634 38.8318 40.8334 38.8686 40.8031 38.9053C40.2022 39.6334 39.5291 40.2998 38.7948 40.8933ZM41 30C41 36.0751 36.0751 41 30 41C23.9249 41 19 36.0751 19 30C19 23.9249 23.9249 19 30 19C36.0751 19 41 23.9249 41 30Z" fill="black" fill-rule="evenodd"/><path d="M46.9393 49.0607L40.9136 43.0349C41.6813 42.3914 42.3914 41.6813 43.0349 40.9136L49.0607 46.9393C49.6464 47.5251 49.6464 48.4749 49.0607 49.0607C48.4749 49.6464 47.5251 49.6464 46.9393 49.0607Z" fill="black"/></svg>